
<?xml version="1.0" standalone="no"?>
<!DOCTYPE svg PUBLIC "-//W3C//DTD SVG 20010904//EN"
 "http://www.w3.org/TR/2001/REC-SVG-20010904/DTD/svg10.dtd">
<svg version="1.0" xmlns="http://www.w3.org/2000/svg"
 width="1094.000000pt" height="1280.000000pt" viewBox="0 0 1094.000000 1280.000000"
 preserveAspectRatio="xMidYMid meet">
<metadata>
Created by potrace 1.15, written by Peter Selinger 2001-2017
</metadata>
<g transform="translate(0.000000,1280.000000) scale(0.100000,-0.100000)"
fill="rgb(173, 5, 145)" stroke="none">
<path d="M6175 12795 c-5 -2 -35 -11 -65 -20 -30 -9 -91 -38 -135 -65 -102
-61 -213 -90 -278 -72 -246 70 -311 83 -359 72 -69 -14 -125 -45 -185 -101
-62 -58 -84 -61 -188 -23 -111 41 -166 54 -225 54 -30 0 -82 7 -115 15 -135
32 -212 12 -288 -77 l-47 -55 -72 -6 c-40 -3 -98 -15 -128 -27 -54 -21 -115
-32 -276 -49 -127 -13 -217 -47 -326 -124 l-58 -40 -58 13 c-68 14 -115 5
-204 -42 -64 -33 -66 -33 -144 27 -57 44 -105 59 -168 52 -158 -16 -276 -114
-301 -250 l-7 -37 -53 0 c-72 0 -101 -13 -156 -66 -38 -37 -57 -48 -110 -60
-110 -25 -151 -27 -209 -10 -121 36 -228 10 -306 -76 -69 -75 -82 -187 -34
-295 22 -49 128 -209 227 -343 30 -41 61 -83 68 -93 11 -15 84 -41 175 -61 24
-5 25 -7 22 -83 -3 -57 -8 -80 -20 -89 -16 -11 -15 -17 11 -68 15 -31 27 -63
27 -70 0 -8 -29 -74 -65 -147 -46 -94 -94 -221 -162 -427 -66 -202 -111 -323
-145 -385 -128 -242 -215 -456 -269 -665 -27 -106 -29 -125 -29 -306 0 -142
-4 -206 -15 -242 -19 -64 -18 -111 4 -152 14 -27 16 -45 10 -89 -15 -107 -46
-150 -249 -335 -102 -94 -336 -322 -520 -508 -292 -295 -349 -347 -443 -411
-191 -127 -257 -204 -291 -335 -21 -83 -20 -142 4 -215 49 -145 134 -211 389
-304 110 -41 231 -114 276 -167 22 -27 25 -37 20 -72 -4 -23 -21 -74 -37 -114
-29 -69 -48 -101 -126 -202 -44 -59 -56 -108 -48 -210 10 -135 53 -200 187
-286 38 -24 69 -50 69 -57 0 -8 -19 -43 -42 -78 -57 -89 -78 -153 -78 -243 0
-143 64 -245 215 -342 91 -58 91 -45 0 -224 -112 -222 -151 -371 -142 -535 8
-149 37 -238 143 -441 103 -197 158 -273 248 -346 184 -148 375 -197 793 -205
384 -8 854 32 1390 118 100 16 195 29 211 29 34 0 39 -8 89 -155 101 -293 167
-644 193 -1021 29 -426 41 -588 51 -679 6 -55 12 -176 13 -270 2 -160 4 -175
33 -265 17 -52 39 -144 48 -205 9 -60 21 -138 27 -172 l10 -63 88 0 c49 0 91
4 94 8 2 4 -2 43 -9 87 -8 44 -21 130 -30 192 -9 62 -29 154 -46 205 -29 87
-31 100 -26 198 3 58 1 137 -4 175 -9 75 -32 354 -49 605 -40 590 -97 916
-228 1300 -85 247 -122 273 -335 239 -637 -102 -1019 -139 -1436 -139 -282 0
-429 13 -536 47 -85 27 -198 91 -249 140 -65 64 -89 101 -184 284 -100 192
-116 250 -109 404 6 130 27 197 119 377 80 157 109 247 95 302 -14 60 -47 98
-126 146 -141 85 -187 155 -162 248 12 46 63 135 103 179 27 29 39 89 28 137
-11 48 -90 132 -172 182 -82 50 -98 74 -98 146 0 55 3 63 50 124 84 110 140
236 159 361 13 83 3 125 -45 194 -57 82 -237 197 -384 244 -68 22 -164 69
-208 102 -45 33 -64 85 -60 155 6 81 45 140 138 205 238 167 272 197 515 452
135 141 355 357 490 481 164 150 259 245 285 285 66 98 105 255 86 345 -5 25
-8 61 -8 80 1 19 1 114 1 211 0 97 5 212 11 255 21 151 108 395 212 599 29 55
67 130 85 166 18 37 75 194 126 350 67 202 115 329 167 439 82 173 87 197 61
338 -9 53 -10 89 -3 136 23 142 -28 212 -169 236 -37 6 -74 17 -81 23 -33 27
-218 288 -252 355 -10 18 -16 49 -14 70 2 29 10 40 36 55 32 19 33 19 128 -7
l96 -25 91 23 c51 13 110 27 131 31 43 7 116 53 140 86 12 18 21 21 58 15 97
-13 175 36 198 126 30 116 33 122 80 146 24 12 55 22 68 22 13 0 52 -21 88
-46 117 -84 167 -86 293 -17 l65 36 63 -15 c82 -20 124 -10 189 44 90 74 162
102 304 117 162 18 183 22 256 47 45 15 93 24 135 24 87 1 135 24 190 93 24
31 49 58 56 61 6 2 38 -2 71 -9 33 -8 98 -17 144 -21 46 -4 102 -15 126 -26
62 -26 193 -58 239 -58 71 0 107 18 175 84 38 37 77 66 95 70 20 5 68 -4 144
-25 63 -17 136 -38 164 -45 68 -19 83 -18 214 15 74 19 131 41 165 62 109 70
143 82 220 77 84 -6 96 -12 287 -135 131 -84 155 -96 225 -110 l79 -16 208 41
c148 30 239 54 315 84 230 90 354 54 452 -131 48 -89 80 -106 200 -106 84 1
104 5 173 33 43 18 92 32 108 32 55 0 113 -41 244 -175 105 -107 144 -139 200
-168 40 -20 108 -69 160 -116 50 -44 93 -81 97 -81 18 -1 131 -160 178 -251
29 -57 64 -118 77 -136 21 -27 149 -118 323 -228 25 -16 72 -54 105 -85 33
-31 96 -82 140 -115 44 -32 109 -90 145 -128 118 -127 154 -162 213 -202 63
-44 120 -112 161 -193 14 -28 46 -83 71 -121 32 -49 52 -97 70 -164 14 -51 47
-143 74 -203 52 -118 66 -160 132 -389 l43 -150 1 -175 c0 -171 -1 -177 -32
-270 -26 -77 -35 -122 -43 -234 -21 -279 -28 -332 -71 -551 -54 -270 -102
-439 -219 -770 -62 -173 -236 -550 -343 -740 -276 -492 -683 -1011 -992 -1263
-77 -63 -212 -162 -221 -162 -3 0 -23 -13 -43 -29 -20 -15 -81 -55 -136 -88
-433 -261 -898 -429 -1395 -507 -145 -22 -172 -26 -267 -32 -48 -3 -93 -7
-100 -9 -13 -4 -13 -2 -33 148 -13 106 -63 252 -122 354 -49 86 -179 229 -271
299 -272 206 -679 247 -1001 100 -148 -68 -313 -206 -405 -340 -50 -72 -117
-221 -142 -316 -32 -116 -34 -366 -5 -480 72 -284 258 -520 511 -650 319 -163
701 -143 1001 52 94 61 214 178 274 267 62 92 119 221 143 321 l21 88 96 6
c332 24 644 86 960 193 321 108 669 272 865 408 33 23 80 54 105 69 25 15 70
48 102 74 31 26 111 79 178 117 112 64 131 80 234 190 325 350 559 668 810
1105 45 78 215 416 235 468 11 27 28 69 39 93 11 24 31 73 45 109 13 36 33 88
44 115 17 43 105 314 149 457 8 26 14 55 14 65 0 11 4 23 9 29 9 9 34 135 71
364 11 69 29 224 39 345 14 162 25 236 40 280 47 130 63 323 41 480 -10 66
-77 321 -122 465 -12 36 -45 120 -74 186 -30 67 -54 129 -54 138 0 40 -51 169
-92 231 -24 39 -59 98 -77 132 -45 85 -116 170 -186 223 -32 25 -116 102 -185
172 -69 69 -161 152 -204 184 -44 32 -110 85 -147 118 -36 34 -85 72 -108 86
-58 34 -199 127 -238 157 -21 15 -52 61 -88 131 -30 59 -81 140 -112 181 -78
100 -291 287 -382 335 -57 30 -100 66 -204 170 -108 109 -145 139 -202 167
-61 30 -79 34 -145 33 -60 -1 -91 -7 -153 -32 -43 -18 -95 -32 -116 -32 -37 0
-41 3 -71 56 -64 113 -169 191 -299 220 -104 23 -184 15 -301 -31 -158 -62
-474 -132 -551 -122 -28 4 -81 32 -178 96 -151 99 -196 122 -286 146 -52 13
-152 19 -180 10z m-90 -7495 c206 -66 363 -198 454 -384 46 -94 67 -170 77
-279 l7 -78 -67 3 -66 3 0 46 c0 60 -32 185 -64 246 -67 131 -196 241 -340
290 -70 24 -96 27 -191 27 -93 -1 -122 -5 -184 -27 -245 -88 -401 -306 -401
-562 0 -339 288 -614 620 -592 220 15 407 139 502 335 l40 83 57 -3 56 -3 -1
-33 c-3 -47 -76 -189 -138 -264 -204 -247 -558 -335 -857 -213 -160 65 -309
204 -384 359 -57 118 -78 205 -78 331 0 126 21 213 78 331 95 197 289 349 509
399 91 21 281 13 371 -15z"/>
<path d="M5730 10394 c-784 -69 -1444 -435 -1815 -1007 -103 -160 -193 -371
-231 -547 -22 -101 -30 -347 -15 -435 43 -244 236 -445 491 -512 89 -23 352
-22 465 2 368 78 613 297 743 667 35 97 54 190 77 378 29 225 65 320 151 399
100 91 239 107 368 41 80 -40 124 -88 172 -185 100 -205 100 -469 -1 -773 -64
-191 -134 -319 -403 -735 -194 -300 -298 -509 -342 -687 -39 -153 -43 -423 -9
-529 26 -81 74 -158 138 -222 118 -118 238 -160 462 -160 209 0 320 24 424 93
86 57 133 128 230 355 113 261 236 418 430 546 112 73 165 101 330 167 508
206 820 472 970 829 115 272 126 629 28 926 -82 250 -258 512 -473 701 -375
331 -878 564 -1425 660 -135 24 -179 27 -435 29 -157 2 -305 1 -330 -1z"/>
</g>
</svg>
